#!OML:ASF F:\VICON\USERDATA\Patient Classification 1\PLAYGROUND\JustinFriday\JustinFriday.ASF
:FULLY-SPECIFIED
:DEGREES
3025
root -27.2232 17.772 -2.87821 357.318 34.9105 -9.08921
lowerback 14.9221 0.103433 3.41837
upperback 2.69204 1.0073 4.1632
thorax -5.53103 0.495544 2.27316
lowerneck -16.7421 -1.1483 -1.93697
upperneck 13.9087 -1.9453 4.97823
head 7.08071 -0.572417 1.72872
rclavicle 3.73715e-014 4.45278e-014
rhumerus -20.5139 -21.6024 -74.3508
rradius 24.6818
rwrist 16.7205
rhand 12.2883 -53.841
rfingers 7.12502
rthumb 37.2934 -79.829
lclavicle 3.73715e-014 4.45278e-014
lhumerus -23.1887 -4.35427 79.5193
lradius 48.395
lwrist -1.87858
lhand -19.5993 -9.71318
lfingers 7.12502
lthumb 6.72667 20.16
rfemur -19.7772 -1.25167 24.8852
rtibia 17.4106
rfoot 1.57408 -5.29291
rtoes 15.5431
lfemur -2.19802 -6.32359 -5.38181
ltibia 56.8038
lfoot -3.95568 0.647419
ltoes 15.5695
3026
root -27.1979 17.7996 -2.74173 357.242 34.8557 -8.11266
lowerback 14.3133 0.00492553 1.72216
upperback 3.50832 0.571199 4.46307
thorax -4.34596 0.311056 3.62491
lowerneck -16.0241 0.270223 -1.05912
upperneck 12.7824 0.0830418 3.2954
head 6.51814 0.276464 1.24211
rclavicle -2.41523e-014 -2.66371e-014
rhumerus -20.0261 -21.9347 -74.4867
rradius 24.427
rwrist 18.2401
rhand 11.5854 -52.7364
rfingers 7.12502
rthumb 36.6285 -78.896
lclavicle -2.41523e-014 -2.66371e-014
lhumerus -23.3544 -3.61334 79.6455
lradius 48.8926
lwrist -1.12995
lhand -18.6877 -10.084
lfingers 7.12502
lthumb 7.60662 19.7592
rfemur -18.2635 -1.16238 24.1575
rtibia 16.8526
rfoot 1.65596 -5.43779
rtoes 18.0306
lfemur -2.81133 -6.63844 -6.54998
ltibia 59.1967
lfoot -4.92644 -1.70384
ltoes 9.0108
3027
root -27.1532 17.8248 -2.65572 357.319 34.2284 -8.19065
lowerback 14.8412 -0.0121057 2.7883
upperback 2.78773 0.725826 3.91062
thorax -5.38429 0.365501 2.41432
lowerneck -15.5869 0.124858 -1.34328
upperneck 13.6735 -0.261181 4.45636
head 6.74216 0.203808 1.63416
rclavicle 3.16068e-014 1.43125e-014
rhumerus -20.3268 -22.9058 -74.4781
rradius 23.3385
rwrist 19.2648
rhand 13.0137 -52.4321
rfingers 7.12502
rthumb 37.9788 -78.237
lclavicle 3.16068e-014 1.43125e-014
lhumerus -24.543 -4.22512 79.0636
lradius 48.346
lwrist -0.814624
lhand -18.0806 -10.6144
lfingers 7.12502
lthumb 8.19258 19.2068
rfemur -17.675 -1.28728 24.4444
rtibia 16.0606
rfoot 1.77664 -4.56283
rtoes 18.3499
lfemur -4.6562 -6.28259 -6.79836
ltibia 61.8998
lfoot -4.84277 -3.37341
ltoes 7.49067
3028
root -27.1425 17.8384 -2.54559 356.455 33.7117 -9.66469
lowerback 15.116 0.00758925 4.10771
upperback 2.67259 1.00297 4.1526
thorax -5.64588 0.479551 1.87419
lowerneck -16.5041 0.0624831 -1.77041
upperneck 15.413 -0.436461 5.22778
head 7.4745 0.198395 1.9634
rclavicle 9.53172e-014 5.96354e-015
rhumerus -18.9808 -23.7931 -74.3865
rradius 21.6987
rwrist 20.1171
rhand 13.7608 -52.1236
rfingers 7.12502
rthumb 38.684 -77.7334
lclavicle 9.53172e-014 5.96354e-015
lhumerus -24.6343 -4.1158 79.0872
lradius 47.6664
lwrist -1.36261
lhand -17.7795 -10.8615
lfingers 7.12502
lthumb 8.48313 18.9481
rfemur -16.8728 -0.255456 25.9816
rtibia 15.4386
rfoot 1.03051 -4.92657
rtoes 16.5893
lfemur -5.88651 -5.90753 -5.20301
ltibia 64.5311
lfoot -6.47724 -6.22124
ltoes 0.0913614
3029
root -27.1472 17.8339 -2.47175 354.937 32.2765 -13.1438
lowerback 15.2436 0.317556 6.86542
upperback 2.78087 1.94062 5.15151
thorax -5.54931 0.907367 1.20565
lowerneck -17.6685 0.475225 -1.96411
upperneck 16.4457 0.25663 4.66395
head 7.99103 0.481665 1.91037
rclavicle -2.45499e-014 -1.15295e-014
rhumerus -19.2446 -24.8292 -74.1211
rradius 22.0113
rwrist 21.0428
rhand 11.8192 -50.9651
rfingers 7.12502
rthumb 36.8496 -77.0683
lclavicle -2.45499e-014 -1.15295e-014
lhumerus -24.4268 -4.35611 79.7441
lradius 47.7782
lwrist -1.46977
lhand -17.508 -10.5968
lfingers 7.12502
lthumb 8.74515 19.202
rfemur -16.578 1.66492 29.4849
rtibia 14.6143
rfoot 1.98688 -6.08995
rtoes 19.2997
lfemur -7.93804 -4.30934 -1.28525
ltibia 67.3671
lfoot -7.23099 -9.25473
ltoes -2.64106
3030
root -27.0899 17.8783 -2.31921 355.791 32.6258 -9.97004
lowerback 14.8403 0.464245 4.06882
upperback 3.53838 1.57442 4.71894
thorax -4.59579 0.785587 2.38485
lowerneck -19.37 0.0373013 -4.13561
upperneck 17.2076 -0.140507 6.62591
head 8.56104 0.383332 2.91733
rclavicle 7.49418e-014 -5.08889e-014
rhumerus -18.0736 -24.1395 -74.2926
rradius 21.428
rwrist 20.702
rhand 10.1251 -52.3255
rfingers 7.12502
rthumb 35.2449 -78.824
lclavicle 7.49418e-014 -5.08889e-014
lhumerus -24.3567 -4.37848 80.2337
lradius 47.8472
lwrist -1.02494
lhand -16.4572 -10.5689
lfingers 7.12502
lthumb 9.7591 19.185
rfemur -14.4196 0.67192 26.7374
rtibia 13.419
rfoot 1.12311 -4.08444
rtoes 9.91192
lfemur -7.95247 -5.13602 -5.0205
ltibia 69.3049
lfoot -7.90349 -10.2121
ltoes -4.43173
3031
root -27.0378 17.9094 -2.19874 355.942 32.3801 -8.84292
lowerback 14.7574 0.618623 3.30164
upperback 3.83123 1.62666 4.50703
thorax -4.2568 0.820931 2.5837
lowerneck -18.7457 0.822751 -2.88111
upperneck 16.3937 1.06414 4.3109
head 8.12587 0.776153 2.04943
rclavicle 1.33186e-014 3.57812e-015
rhumerus -17.1846 -25.7371 -73.7316
rradius 21.9002
rwrist 21.7078
rhand 20.007 -54.4895
rfingers 7.12502
rthumb 44.5416 -78.1674
lclavicle 1.33186e-014 3.57812e-015
lhumerus -24.6262 -4.67571 80.4694
lradius 47.8057
lwrist -0.698707
lhand -15.022 -11.0694
lfingers 7.12502
lthumb 11.1435 18.6147
rfemur -12.428 0.114719 25.8997
rtibia 11.4092
rfoot 0.971927 -1.8829
rtoes 1.03041
lfemur -8.34861 -5.07719 -6.43438
ltibia 71.4892
lfoot -8.94262 -11.8323
ltoes -5.59203
3032
root -26.9979 17.9438 -2.11317 355.517 31.471 -9.73377
lowerback 15.2518 0.70865 4.62559
upperback 3.38474 1.9973 4.38524
thorax -4.95621 0.977331 1.63366
lowerneck -17.7928 1.20719 -1.75804
upperneck 16.551 1.43898 3.46769
head 8.01397 0.932584 1.61812
rclavicle -5.725e-014 4.13472e-014
rhumerus -18.1499 -25.7999 -74.1817
rradius 21.0124
rwrist 22.3519
rhand 8.18583 -48.7481
rfingers 7.12502
rthumb 33.4037 -75.6623
lclavicle -5.725e-014 4.13472e-014
lhumerus -25.5412 -4.22563 80.1607
lradius 47.5739
lwrist -1.26879
lhand -13.5939 -12.5524
lfingers 7.12502
lthumb 12.5207 17.0525
rfemur -11.8605 0.307177 26.9783
rtibia 10.906
rfoot 0.597153 -0.775605
rtoes -2.11842
lfemur -9.5715 -3.87086 -5.38219
ltibia 73.6826
lfoot -9.35216 -13.8908
ltoes -2.94825
3033
root -26.989 17.9516 -2.06616 354.852 30.0699 -12.1743
lowerback 15.592 0.447592 6.77463
upperback 2.69015 2.09652 4.66849
thorax -5.81608 0.967669 0.707032
lowerneck -15.7418 1.6919 0.018335
upperneck 16.4248 1.77445 2.8834
head 7.62913 1.13681 1.14433
rclavicle -3.67752e-015 -2.54444e-014
rhumerus -18.8861 -26.8573 -74.6384
rradius 21.5131
rwrist 24.4182
rhand 11.2968 -48.781
rfingers 7.12502
rthumb 36.3553 -75.0094
lclavicle -3.67752e-015 -2.54444e-014
lhumerus -27.2197 -2.9952 79.2709
lradius 47.8604
lwrist -1.45078
lhand -12.9419 -12.9169
lfingers 7.12502
lthumb 13.1492 16.6485
rfemur -11.739 1.06531 29.6998
rtibia 9.86341
rfoot 0.89117 -0.0564615
rtoes -1.3484
lfemur -12.1888 -1.93987 -2.51327
ltibia 76.4305
lfoot -10.0117 -15.6819
ltoes -2.73778
3034
root -26.9275 17.9621 -1.93882 355.323 30.6346 -10.6866
lowerback 14.5685 0.80321 5.65274
upperback 3.81162 2.23082 4.94096
thorax -4.11374 1.10679 1.6154
lowerneck -18.5768 1.39848 -2.4848
upperneck 16.8429 1.95825 3.1982
head 8.2277 1.10598 1.7233
rclavicle 1.92821e-014 -3.73715e-014
rhumerus -16.2466 -26.4495 -74.1318
rradius 20.5166
rwrist 23.3205
rhand 11.0263 -48.0751
rfingers 7.12502
rthumb 36.0991 -74.3672
lclavicle 1.92821e-014 -3.73715e-014
lhumerus -25.6552 -3.15647 80.9645
lradius 47.7303
lwrist -1.18261
lhand -12.8042 -12.4595
lfingers 7.12502
lthumb 13.2819 17.0972
rfemur -10.77 -0.0841661 28.3089
rtibia 9.54667
rfoot 1.34138 -0.23863
rtoes 2.06623
lfemur -13.4363 -2.97652 -4.98157
ltibia 78.5853
lfoot -11.6374 -14.7134
ltoes -5.77059
3035
root -26.8727 17.9861 -1.84972 356.018 30.4836 -9.40706
lowerback 14.6509 1.08471 4.91127
upperback 2.9767 2.49032 4.12897
thorax -5.03578 1.20542 1.117
lowerneck -15.8733 1.63544 -0.374375
upperneck 16.4087 1.87048 2.4709
head 7.64435 1.11772 1.08471
rclavicle -4.9895e-014 -1.11319e-014
rhumerus -19.278 -27.6661 -73.8343
rradius 22.8891
rwrist 23.6586
rhand 8.41062 -48.3526
rfingers 7.12502
rthumb 33.6174 -75.2205
lclavicle -4.9895e-014 -1.11319e-014
lhumerus -27.6475 -4.45944 80.4712
lradius 47.9768
lwrist -0.626299
lhand -12.2887 -12.6251
lfingers 7.12502
lthumb 13.7788 16.8986
rfemur -10.682 -0.511132 27.1269
rtibia 10.0028
rfoot 2.82679 -2.27956
rtoes 16.6292
lfemur -14.8342 -2.72052 -6.82057
ltibia 80.6829
lfoot -13.082 -13.8561
ltoes -8.38681
3036
root -26.7991 17.9928 -1.78748 357.256 30.5147 -7.17787
lowerback 14.6345 1.08885 3.87635
upperback 2.91043 2.29098 3.45788
thorax -5.11142 1.11284 1.02529
lowerneck -15.655 1.64048 -0.273093
upperneck 16.443 1.88716 2.29956
head 7.62009 1.1149 1.01131
rclavicle -6.54995e-014 3.57812e-015
rhumerus -20.1144 -28.3163 -73.789
rradius 25.1281
rwrist 24.0954
rhand 7.87461 -48.6184
rfingers 7.12502
rthumb 33.1078 -75.5958
lclavicle -6.54995e-014 3.57812e-015
lhumerus -28.0524 -3.82059 80.556
lradius 47.7671
lwrist -0.901131
lhand -11.8485 -12.5668
lfingers 7.12502
lthumb 14.203 16.9276
rfemur -10.5872 -2.88366 25.0882
rtibia 10.2934
rfoot 2.54757 -0.166955
rtoes 17.5384
lfemur -16.2152 -3.08207 -9.88937
ltibia 82.6833
lfoot -14.2231 -13.0927
ltoes -5.65665
3037
root -26.7469 18.0127 -1.71824 357.261 30.5353 -7.09526
lowerback 14.4674 1.09173 4.20553
upperback 3.44186 2.32677 3.71616
thorax -4.4553 1.1449 1.11447
lowerneck -18.4818 1.35804 -2.78884
upperneck 18.3103 1.78013 4.11208
head 8.70062 1.0992 2.08573
rclavicle 3.55825e-014 3.33958e-014
rhumerus -16.5833 -26.1253 -74.0249
rradius 21.2217
rwrist 22.4869
rhand 8.1899 -45.8068
rfingers 7.12502
rthumb 33.4076 -72.7201
lclavicle 3.55825e-014 3.33958e-014
lhumerus -27.2368 -3.26091 81.4744
lradius 47.3794
lwrist -1.09043
lhand -11.9477 -12.1359
lfingers 7.12502
lthumb 14.1074 17.3653
rfemur -9.52859 -2.80384 24.8376
rtibia 8.91419
rfoot 3.08274 -0.612633
rtoes 18.9089
lfemur -17.7002 -2.92521 -10.3051
ltibia 84.7695
lfoot -15.2737 -13.3291
ltoes -3.21974
3038
root -26.7542 18.0236 -1.63154 355.579 29.8727 -10.5603
lowerback 14.745 1.21248 6.89372
upperback 3.49414 2.9763 4.69952
thorax -4.45904 1.44782 0.529503
lowerneck -18.7226 0.867809 -3.17388
upperneck 17.8293 1.17013 4.3706
head 8.59934 0.815034 2.15567
rclavicle 8.28932e-014 -8.74653e-015
rhumerus -16.829 -26.0605 -73.8083
rradius 22.7324
rwrist 21.7904
rhand 10.0372 -45.9239
rfingers 7.12502
rthumb 35.1617 -72.4421
lclavicle 8.28932e-014 -8.74653e-015
lhumerus -27.2467 -3.75609 82.0927
lradius 47.2822
lwrist -0.570712
lhand -12.1525 -11.958
lfingers 7.12502
lthumb 13.9101 17.5568
rfemur -8.50922 -2.0708 28.5806
rtibia 7.19167
rfoot 2.09444 0.22506
rtoes 11.6902
lfemur -19.7538 -1.02983 -6.07544
ltibia 87.074
lfoot -15.5609 -15.0246
ltoes -2.98563
